<?xml version="1.0" encoding="UTF-8" standalone="no"?>
<!DOCTYPE svg PUBLIC "-//W3C//DTD SVG 1.1//EN" "http://www.w3.org/Graphics/SVG/1.1/DTD/svg11.dtd">
<svg width="100%" height="100%" viewBox="0 0 338 119" version="1.1" xmlns="http://www.w3.org/2000/svg" xmlns:xlink="http://www.w3.org/1999/xlink" xml:space="preserve" xmlns:serif="http://www.serif.com/" style="fill-rule:evenodd;clip-rule:evenodd;stroke-linecap:round;stroke-linejoin:round;stroke-miterlimit:1.5;">
    <g transform="matrix(1,0,0,1,-290.596,-240.883)">
        <g id="Chin_Master" transform="matrix(1,0,0,1.16997,-142.756,-255.071)">
            <path d="M770.419,424.236C770.419,424.236 758.697,424.262 742.459,424.262L464.444,424.262C448.207,424.262 435.024,423.903 435.024,423.903C433.088,440.725 432.521,458.238 435.024,477.304C431.636,496.102 481.786,527.061 512,524.847C554.548,521.729 689.76,524.847 689.76,524.847C705.336,524.847 739.108,513.329 758.977,495.581C760.684,494.025 762.014,492.194 762.889,490.196C772.787,467.184 770.419,424.236 770.419,424.236Z" style="fill:rgb(122,192,27);"/>
        </g>
        <g id="mouth_2" transform="matrix(1,0,0,1,-152.185,-182.8)">
            <g transform="matrix(1,0,0,1,-13.7233,-12.4219)">
                <rect x="633.854" y="482.808" width="27.447" height="31.746" style="fill:rgb(255,240,0);stroke:rgb(217,195,12);stroke-width:2.5px;"/>
            </g>
            <g transform="matrix(1,0,0,1,-44.2665,-12.4219)">
                <rect x="633.854" y="482.808" width="27.447" height="31.746" style="fill:rgb(255,240,0);stroke:rgb(217,195,12);stroke-width:2.5px;"/>
            </g>
            <g transform="matrix(1,0,0,1,4.08534,-0.117188)">
                <path d="M524.355,470.503L690.351,463.585" style="fill:none;stroke:rgb(32,19,18);stroke-width:12px;"/>
            </g>
        </g>
    </g>
</svg>
