<?xml version="1.0" encoding="UTF-8" standalone="no"?>
<!DOCTYPE svg PUBLIC "-//W3C//DTD SVG 1.1//EN" "http://www.w3.org/Graphics/SVG/1.1/DTD/svg11.dtd">
<svg width="100%" height="100%" viewBox="0 0 401 233" version="1.1" xmlns="http://www.w3.org/2000/svg" xmlns:xlink="http://www.w3.org/1999/xlink" xml:space="preserve" xmlns:serif="http://www.serif.com/" style="fill-rule:evenodd;clip-rule:evenodd;stroke-linecap:round;stroke-linejoin:round;stroke-miterlimit:1.5;">
    <g transform="matrix(1,0,0,1,-298.034,-95.2511)">
        <g id="forehead_Master" transform="matrix(0.99996,0,0,1.0371,-105.008,-13.1278)">
            <g transform="matrix(1.14029,0,0,1,-43.0509,-2.66454e-15)">
                <path d="M742.015,160.771C742.015,129.981 719.279,104.984 691.274,104.984L442.402,104.984C414.397,104.984 391.661,129.981 391.661,160.771L391.661,272.346C391.661,303.136 414.397,328.133 442.402,328.133L691.274,328.133C719.279,328.133 742.015,303.136 742.015,272.346L742.015,160.771Z" style="fill:rgb(46,55,35);stroke:rgb(87,131,27);stroke-width:0.92px;"/>
            </g>
            <g transform="matrix(-1.76611,0.0172554,-0.010633,-1.0883,1645.86,484.278)">
                <path d="M684.172,225.161L684.669,154.331L494.108,151.31C494.108,151.31 493.601,184.549 493.601,225.161L493.601,255.894C493.601,296.506 513.919,329.478 538.944,329.478L638.829,329.478C663.854,329.478 684.172,296.506 684.172,255.894L684.172,225.161Z" style="fill:rgb(119,192,20);stroke:rgb(87,131,27);stroke-width:0.67px;"/>
            </g>
            <g transform="matrix(1,0,0,0.576493,0,91.9987)">
                <path d="M714.742,223.448C714.742,220.017 713.076,217.231 711.025,217.231L495.37,217.231C493.318,217.231 491.652,220.017 491.652,223.448L491.652,235.883C491.652,239.315 493.318,242.101 495.37,242.101L711.025,242.101C713.076,242.101 714.742,239.315 714.742,235.883L714.742,223.448Z" style="fill:rgb(87,131,27);stroke:rgb(87,131,27);stroke-width:1.21px;"/>
            </g>
        </g>
        <g transform="matrix(1,0,0,1,-108.993,-10.3146)">
            <g id="eyes_2">
                <ellipse cx="547.535" cy="286.123" rx="35.535" ry="43.354" style="fill:rgb(87,131,27);stroke:rgb(87,131,27);stroke-width:1px;"/>
                <g transform="matrix(0.764317,0,0,0.719473,129.044,80.2654)">
                    <ellipse cx="547.535" cy="286.123" rx="35.535" ry="43.354" style="fill:rgb(213,225,197);stroke:rgb(187,195,177);stroke-width:1.35px;"/>
                </g>
                <g transform="matrix(1,0,0,1,121.992,0.0624445)">
                    <ellipse cx="547.535" cy="286.123" rx="35.535" ry="43.354" style="fill:rgb(87,131,27);stroke:rgb(87,131,27);stroke-width:1px;"/>
                </g>
                <g transform="matrix(0.764317,0,0,0.719473,251.037,80.2654)">
                    <ellipse cx="547.535" cy="286.123" rx="35.535" ry="43.354" style="fill:rgb(213,225,197);stroke:rgb(187,195,177);stroke-width:1.35px;"/>
                </g>
                <g transform="matrix(0.49093,0,0,0.359736,400.726,197.071)">
                    <ellipse cx="547.535" cy="286.123" rx="35.535" ry="43.354" style="fill:rgb(16,22,7);stroke:rgb(187,195,177);stroke-width:2.32px;"/>
                </g>
                <g transform="matrix(0.49093,0,0,0.359736,269.019,181.475)">
                    <ellipse cx="547.535" cy="286.123" rx="35.535" ry="43.354" style="fill:rgb(16,22,7);stroke:rgb(187,195,177);stroke-width:2.32px;"/>
                </g>
            </g>
            <g transform="matrix(1,0,0,1,3.76237,27.4808)">
                <path d="M478.592,118.144C478.592,113.493 483.823,109.718 490.267,109.718C496.711,109.718 501.942,113.493 501.942,118.144C505.164,114.116 512.311,112.735 517.891,115.06C523.472,117.385 525.387,122.542 522.165,126.569C527.745,124.244 534.892,125.626 538.114,129.654C541.335,133.681 539.421,138.838 533.84,141.163C540.284,141.163 545.515,144.939 545.515,149.589C545.515,154.239 540.284,158.015 533.84,158.015C539.421,160.34 541.335,165.497 538.114,169.525C534.892,173.552 527.745,174.934 522.165,172.609C525.387,176.636 523.472,181.793 517.891,184.118C512.311,186.444 505.164,185.062 501.942,181.034C501.942,185.685 496.711,189.46 490.267,189.46C483.823,189.46 478.592,185.685 478.592,181.034C475.37,185.062 468.223,186.444 462.643,184.118C457.062,181.793 455.147,176.636 458.369,172.609C452.789,174.934 445.642,173.552 442.42,169.525C439.198,165.497 441.113,160.34 446.694,158.015C440.25,158.015 435.018,154.239 435.018,149.589C435.018,144.939 440.25,141.163 446.694,141.163C441.113,138.838 439.198,133.681 442.42,129.654C445.642,125.626 452.789,124.244 458.369,126.569C455.147,122.542 457.062,117.385 462.643,115.06C468.223,112.735 475.37,114.116 478.592,118.144Z" style="fill:rgb(233,42,23);stroke:rgb(131,33,27);stroke-width:12px;"/>
            </g>
        </g>
    </g>
</svg>
