<?xml version="1.0" encoding="UTF-8" standalone="no"?>
<!DOCTYPE svg PUBLIC "-//W3C//DTD SVG 1.1//EN" "http://www.w3.org/Graphics/SVG/1.1/DTD/svg11.dtd">
<svg width="100%" height="100%" viewBox="0 0 401 233" version="1.1" xmlns="http://www.w3.org/2000/svg" xmlns:xlink="http://www.w3.org/1999/xlink" xml:space="preserve" xmlns:serif="http://www.serif.com/" style="fill-rule:evenodd;clip-rule:evenodd;stroke-linecap:round;stroke-linejoin:round;stroke-miterlimit:1.5;">
    <g transform="matrix(1,0,0,1,-269.897,-118.159)">
        <g id="forehead_Master" transform="matrix(0.99996,0,0,1.0371,-133.144,9.78019)">
            <g transform="matrix(1.14029,0,0,1,-43.0509,-2.66454e-15)">
                <path d="M742.015,160.771C742.015,129.981 719.279,104.984 691.274,104.984L442.402,104.984C414.397,104.984 391.661,129.981 391.661,160.771L391.661,272.346C391.661,303.136 414.397,328.133 442.402,328.133L691.274,328.133C719.279,328.133 742.015,303.136 742.015,272.346L742.015,160.771Z" style="fill:rgb(46,55,35);stroke:rgb(87,131,27);stroke-width:0.92px;"/>
            </g>
            <g transform="matrix(-1.76611,0.0172554,-0.010633,-1.0883,1645.86,484.278)">
                <path d="M684.172,225.161L684.669,154.331L494.108,151.31C494.108,151.31 493.601,184.549 493.601,225.161L493.601,255.894C493.601,296.506 513.919,329.478 538.944,329.478L638.829,329.478C663.854,329.478 684.172,296.506 684.172,255.894L684.172,225.161Z" style="fill:rgb(119,192,20);stroke:rgb(87,131,27);stroke-width:0.67px;"/>
            </g>
            <g transform="matrix(1,0,0,0.576493,0,91.9987)">
                <path d="M714.742,223.448C714.742,220.017 713.076,217.231 711.025,217.231L495.37,217.231C493.318,217.231 491.652,220.017 491.652,223.448L491.652,235.883C491.652,239.315 493.318,242.101 495.37,242.101L711.025,242.101C713.076,242.101 714.742,239.315 714.742,235.883L714.742,223.448Z" style="fill:rgb(87,131,27);stroke:rgb(87,131,27);stroke-width:1.21px;"/>
            </g>
        </g>
    </g>
</svg>
