<?xml version="1.0" encoding="UTF-8" standalone="no"?>
<!DOCTYPE svg PUBLIC "-//W3C//DTD SVG 1.1//EN" "http://www.w3.org/Graphics/SVG/1.1/DTD/svg11.dtd">
<svg width="100%" height="100%" viewBox="0 0 430 97" version="1.1" xmlns="http://www.w3.org/2000/svg" xmlns:xlink="http://www.w3.org/1999/xlink" xml:space="preserve" xmlns:serif="http://www.serif.com/" style="fill-rule:evenodd;clip-rule:evenodd;stroke-linecap:round;stroke-linejoin:round;stroke-miterlimit:1.5;">
    <g transform="matrix(1,0,0,1,-305.146,-209.595)">
        <g id="Mid-face_Master" transform="matrix(1,0,0,1,-83.7394,-117.818)">
            <rect x="434.813" y="329.478" width="337.067" height="94.784" style="fill:rgb(114,193,5);"/>
            <g transform="matrix(0.0132322,-0.941321,0.999901,0.0140557,70.746,506.224)">
                <path d="M186.226,361.849C190.625,357.283 192.941,352.102 192.941,346.829C192.941,330.249 170.483,316.788 142.82,316.788C115.158,316.788 92.699,330.249 92.699,346.829C92.699,352.102 95.015,357.283 99.414,361.849L186.226,361.849Z" style="fill:rgb(87,131,27);stroke:rgb(87,131,27);stroke-width:1.03px;"/>
            </g>
            <g transform="matrix(-0.0132322,-0.941321,-0.999901,0.0140557,1136.16,504.659)">
                <path d="M186.226,361.849C190.625,357.283 192.941,352.102 192.941,346.829C192.941,330.249 170.483,316.788 142.82,316.788C115.158,316.788 92.699,330.249 92.699,346.829C92.699,352.102 95.015,357.283 99.414,361.849L186.226,361.849Z" style="fill:rgb(87,131,27);stroke:rgb(87,131,27);stroke-width:1.03px;"/>
            </g>
            <g transform="matrix(-0.0104135,-0.740804,-0.68922,0.0096884,1023.21,479.396)">
                <path d="M186.226,361.849C190.625,357.283 192.941,352.102 192.941,346.829C192.941,330.249 170.483,316.788 142.82,316.788C115.158,316.788 92.699,330.249 92.699,346.829C92.699,352.102 95.015,357.283 99.414,361.849L186.226,361.849Z" style="fill:rgb(13,23,1);stroke:rgb(87,131,27);stroke-width:1.4px;"/>
            </g>
            <g transform="matrix(0.0104135,-0.740804,0.68922,0.0096884,183.691,477.536)">
                <path d="M186.226,361.849C190.625,357.283 192.941,352.102 192.941,346.829C192.941,330.249 170.483,316.788 142.82,316.788C115.158,316.788 92.699,330.249 92.699,346.829C92.699,352.102 95.015,357.283 99.414,361.849L186.226,361.849Z" style="fill:rgb(13,23,1);stroke:rgb(87,131,27);stroke-width:1.4px;"/>
            </g>
        </g>
        <g id="nose_2" transform="matrix(-1.18688,0.0732979,-0.0905723,-1.46659,1246.49,769.291)">
            <path d="M584.54,358.856C588.492,347.187 596.395,347.187 600.347,353.021C604.299,358.856 604.299,370.526 600.347,382.195C597.581,390.947 590.468,399.7 584.54,405.534C578.613,399.7 571.499,390.947 568.733,382.195C564.781,370.526 564.781,358.856 568.733,353.021C572.685,347.187 580.588,347.187 584.54,358.856Z" style="fill:rgb(16,22,7);"/>
        </g>
    </g>
</svg>
