<?xml version="1.0" encoding="UTF-8" standalone="no"?>
<!DOCTYPE svg PUBLIC "-//W3C//DTD SVG 1.1//EN" "http://www.w3.org/Graphics/SVG/1.1/DTD/svg11.dtd">
<svg width="100%" height="100%" viewBox="0 0 430 97" version="1.1" xmlns="http://www.w3.org/2000/svg" xmlns:xlink="http://www.w3.org/1999/xlink" xml:space="preserve" xmlns:serif="http://www.serif.com/" style="fill-rule:evenodd;clip-rule:evenodd;stroke-linecap:round;stroke-linejoin:round;stroke-miterlimit:1.5;">
    <g transform="matrix(1,0,0,1,-305.146,-209.595)">
        <g id="Mid-face_Master" transform="matrix(1,0,0,1,-83.7394,-117.818)">
            <rect x="434.813" y="329.478" width="337.067" height="94.784" style="fill:rgb(114,193,5);"/>
            <g transform="matrix(0.0132322,-0.941321,0.999901,0.0140557,70.746,506.224)">
                <path d="M186.226,361.849C190.625,357.283 192.941,352.102 192.941,346.829C192.941,330.249 170.483,316.788 142.82,316.788C115.158,316.788 92.699,330.249 92.699,346.829C92.699,352.102 95.015,357.283 99.414,361.849L186.226,361.849Z" style="fill:rgb(87,131,27);stroke:rgb(87,131,27);stroke-width:1.03px;"/>
            </g>
            <g transform="matrix(-0.0132322,-0.941321,-0.999901,0.0140557,1136.16,504.659)">
                <path d="M186.226,361.849C190.625,357.283 192.941,352.102 192.941,346.829C192.941,330.249 170.483,316.788 142.82,316.788C115.158,316.788 92.699,330.249 92.699,346.829C92.699,352.102 95.015,357.283 99.414,361.849L186.226,361.849Z" style="fill:rgb(87,131,27);stroke:rgb(87,131,27);stroke-width:1.03px;"/>
            </g>
            <g transform="matrix(-0.0104135,-0.740804,-0.68922,0.0096884,1023.21,479.396)">
                <path d="M186.226,361.849C190.625,357.283 192.941,352.102 192.941,346.829C192.941,330.249 170.483,316.788 142.82,316.788C115.158,316.788 92.699,330.249 92.699,346.829C92.699,352.102 95.015,357.283 99.414,361.849L186.226,361.849Z" style="fill:rgb(13,23,1);stroke:rgb(87,131,27);stroke-width:1.4px;"/>
            </g>
            <g transform="matrix(0.0104135,-0.740804,0.68922,0.0096884,183.691,477.536)">
                <path d="M186.226,361.849C190.625,357.283 192.941,352.102 192.941,346.829C192.941,330.249 170.483,316.788 142.82,316.788C115.158,316.788 92.699,330.249 92.699,346.829C92.699,352.102 95.015,357.283 99.414,361.849L186.226,361.849Z" style="fill:rgb(13,23,1);stroke:rgb(87,131,27);stroke-width:1.4px;"/>
            </g>
        </g>
        <g id="nose_3" transform="matrix(1,0,0,1,-85.441,-119.053)">
            <g transform="matrix(1,0,0,1,22.2727,-16.827)">
                <ellipse cx="581.038" cy="378.714" rx="22.273" ry="22.984" style="fill:rgb(87,131,27);stroke:rgb(87,131,27);stroke-width:11px;"/>
            </g>
            <g transform="matrix(0.715178,0,0,0.5,149.563,184.022)">
                <ellipse cx="581.038" cy="378.714" rx="22.273" ry="22.984" style="fill:rgb(87,131,27);stroke:rgb(87,131,27);stroke-width:17.83px;"/>
            </g>
            <g transform="matrix(0.715178,0,0,0.5,225.967,184.022)">
                <ellipse cx="581.038" cy="378.714" rx="22.273" ry="22.984" style="fill:rgb(87,131,27);stroke:rgb(87,131,27);stroke-width:17.83px;"/>
            </g>
            <g transform="matrix(0.0314096,-0.616597,1.2991,0.0661765,-68.7206,706.77)">
                <path d="M537.613,384.871C537.613,384.871 524.738,459.37 524.738,491.298C524.738,494.671 530.507,497.409 537.613,497.409C544.719,497.409 550.488,494.671 550.488,491.298C550.488,459.37 537.613,384.871 537.613,384.871Z" style="fill:rgb(10,16,1);stroke:rgb(9,16,0);stroke-width:10.8px;"/>
            </g>
            <g transform="matrix(-0.0314096,-0.616597,-1.2991,0.0661765,1278.82,706.77)">
                <path d="M537.613,384.871C537.613,384.871 524.738,459.37 524.738,491.298C524.738,494.671 530.507,497.409 537.613,497.409C544.719,497.409 550.488,494.671 550.488,491.298C550.488,459.37 537.613,384.871 537.613,384.871Z" style="fill:rgb(20,25,12);stroke:rgb(16,19,12);stroke-width:10.8px;"/>
            </g>
        </g>
    </g>
</svg>
