<?xml version="1.0" encoding="UTF-8" standalone="no"?>
<!DOCTYPE svg PUBLIC "-//W3C//DTD SVG 1.1//EN" "http://www.w3.org/Graphics/SVG/1.1/DTD/svg11.dtd">
<svg width="100%" height="100%" viewBox="0 0 430 97" version="1.1" xmlns="http://www.w3.org/2000/svg" xmlns:xlink="http://www.w3.org/1999/xlink" xml:space="preserve" xmlns:serif="http://www.serif.com/" style="fill-rule:evenodd;clip-rule:evenodd;stroke-linecap:round;stroke-linejoin:round;stroke-miterlimit:1.5;">
    <g transform="matrix(1,0,0,1,-305.146,-209.595)">
        <g id="Mid-face_Master" transform="matrix(1,0,0,1,-83.7394,-117.818)">
            <rect x="434.813" y="329.478" width="337.067" height="94.784" style="fill:rgb(114,193,5);"/>
            <g transform="matrix(0.0132322,-0.941321,0.999901,0.0140557,70.746,506.224)">
                <path d="M186.226,361.849C190.625,357.283 192.941,352.102 192.941,346.829C192.941,330.249 170.483,316.788 142.82,316.788C115.158,316.788 92.699,330.249 92.699,346.829C92.699,352.102 95.015,357.283 99.414,361.849L186.226,361.849Z" style="fill:rgb(87,131,27);stroke:rgb(87,131,27);stroke-width:1.03px;"/>
            </g>
            <g transform="matrix(-0.0132322,-0.941321,-0.999901,0.0140557,1136.16,504.659)">
                <path d="M186.226,361.849C190.625,357.283 192.941,352.102 192.941,346.829C192.941,330.249 170.483,316.788 142.82,316.788C115.158,316.788 92.699,330.249 92.699,346.829C92.699,352.102 95.015,357.283 99.414,361.849L186.226,361.849Z" style="fill:rgb(87,131,27);stroke:rgb(87,131,27);stroke-width:1.03px;"/>
            </g>
            <g transform="matrix(-0.0104135,-0.740804,-0.68922,0.0096884,1023.21,479.396)">
                <path d="M186.226,361.849C190.625,357.283 192.941,352.102 192.941,346.829C192.941,330.249 170.483,316.788 142.82,316.788C115.158,316.788 92.699,330.249 92.699,346.829C92.699,352.102 95.015,357.283 99.414,361.849L186.226,361.849Z" style="fill:rgb(13,23,1);stroke:rgb(87,131,27);stroke-width:1.4px;"/>
            </g>
            <g transform="matrix(0.0104135,-0.740804,0.68922,0.0096884,183.691,477.536)">
                <path d="M186.226,361.849C190.625,357.283 192.941,352.102 192.941,346.829C192.941,330.249 170.483,316.788 142.82,316.788C115.158,316.788 92.699,330.249 92.699,346.829C92.699,352.102 95.015,357.283 99.414,361.849L186.226,361.849Z" style="fill:rgb(13,23,1);stroke:rgb(87,131,27);stroke-width:1.4px;"/>
            </g>
        </g>
        <g id="nose_1" transform="matrix(1,0,0,1,-83.5984,-103.771)">
            <g transform="matrix(1,0,0,1,-25.6031,-11.2734)">
                <ellipse cx="628.914" cy="368.891" rx="45.934" ry="29.987" style="fill:rgb(87,131,27);"/>
            </g>
            <g transform="matrix(1,0,0,1,15.4602,-11.5537)">
                <ellipse cx="541.917" cy="383.814" rx="15.46" ry="14.643" style="fill:rgb(87,131,27);"/>
            </g>
            <g transform="matrix(1,0,0,1,0,-13.9404)">
                <path d="M641.514,386.903C641.514,386.903 633.784,407.569 633.784,416.425C633.784,420.692 637.248,424.155 641.514,424.155C645.781,424.155 649.244,420.692 649.244,416.425C649.244,407.569 641.514,386.903 641.514,386.903Z" style="fill:rgb(173,158,10);"/>
            </g>
            <g transform="matrix(1,0,0,1,107.327,-10.8516)">
                <ellipse cx="541.917" cy="383.814" rx="15.46" ry="14.643" style="fill:rgb(87,131,27);"/>
            </g>
        </g>
    </g>
</svg>
